<?xml version="1.0" encoding="UTF-8"?>
<svg xmlns="http://www.w3.org/2000/svg" xmlns:xlink="http://www.w3.org/1999/xlink" width="322pt" height="162pt" viewBox="0 0 322 162" version="1.1">
<g id="surface1034">
<rect x="0" y="0" width="322" height="162" style="fill:rgb(100%,100%,100%);fill-opacity:1;stroke:none;"/>
<path style="fill:none;stroke-width:0.05;stroke-linecap:butt;stroke-linejoin:miter;stroke:rgb(0%,0%,0%);stroke-opacity:1;stroke-miterlimit:10;" d="M -0.0000107786 0.0000781249 L 15.999989 0.0000781249 L 15.999989 8.000078 L -0.0000107786 8.000078 Z M -0.0000107786 0.0000781249 " transform="matrix(20,0,0,20,1.140841,1.1)"/>
<path style="fill:none;stroke-width:0.05;stroke-linecap:butt;stroke-linejoin:miter;stroke:rgb(0%,0%,0%);stroke-opacity:1;stroke-miterlimit:10;" d="M -0.0000107786 1.000078 L 1.999989 8.000078 " transform="matrix(20,0,0,20,1.140841,1.1)"/>
<path style="fill:none;stroke-width:0.05;stroke-linecap:butt;stroke-linejoin:miter;stroke:rgb(0%,0%,0%);stroke-opacity:1;stroke-miterlimit:10;" d="M -0.0000107786 2.000078 L 3.999989 8.000078 " transform="matrix(20,0,0,20,1.140841,1.1)"/>
<path style="fill:none;stroke-width:0.05;stroke-linecap:butt;stroke-linejoin:miter;stroke:rgb(0%,0%,0%);stroke-opacity:1;stroke-miterlimit:10;" d="M -0.0000107786 3.000078 L 5.999989 8.000078 " transform="matrix(20,0,0,20,1.140841,1.1)"/>
<path style="fill:none;stroke-width:0.05;stroke-linecap:butt;stroke-linejoin:miter;stroke:rgb(0%,0%,0%);stroke-opacity:1;stroke-miterlimit:10;" d="M -0.0000107786 4.000078 L 7.999989 8.000078 " transform="matrix(20,0,0,20,1.140841,1.1)"/>
<path style="fill:none;stroke-width:0.05;stroke-linecap:butt;stroke-linejoin:miter;stroke:rgb(0%,0%,0%);stroke-opacity:1;stroke-miterlimit:10;" d="M -0.0000107786 5.000078 L 9.999989 8.000078 " transform="matrix(20,0,0,20,1.140841,1.1)"/>
<path style="fill:none;stroke-width:0.05;stroke-linecap:butt;stroke-linejoin:miter;stroke:rgb(0%,0%,0%);stroke-opacity:1;stroke-miterlimit:10;" d="M -0.0000107786 6.000078 L 11.999989 8.000078 " transform="matrix(20,0,0,20,1.140841,1.1)"/>
<path style="fill:none;stroke-width:0.05;stroke-linecap:butt;stroke-linejoin:miter;stroke:rgb(0%,0%,0%);stroke-opacity:1;stroke-miterlimit:10;" d="M -0.0000107786 6.500078 L 13.999989 8.000078 " transform="matrix(20,0,0,20,1.140841,1.1)"/>
</g>
</svg>
