<?xml version="1.0" encoding="UTF-8" standalone="no"?>
<!DOCTYPE svg PUBLIC "-//W3C//DTD SVG 1.1//EN" "http://www.w3.org/Graphics/SVG/1.1/DTD/svg11.dtd">
<svg width="640px" height="360px" version="1.1" xmlns="http://www.w3.org/2000/svg" xmlns:xlink="http://www.w3.org/1999/xlink" xml:space="preserve" xmlns:serif="http://www.serif.com/" style="fill-rule:evenodd;clip-rule:evenodd;stroke-linejoin:round;stroke-miterlimit:2;">
    <g id="g2303">
        <g>
            <path id="path46" d="M252.494,168.164C252.494,151.325 247.693,142.681 238.09,142.207C234.269,142.027 230.538,142.635 226.909,144.044C224.012,145.081 222.062,146.107 221.037,147.144L221.037,187.336C227.18,191.191 232.635,192.983 237.391,192.702C247.456,192.037 252.494,183.865 252.494,168.164ZM264.34,168.863C264.34,177.418 262.334,184.519 258.299,190.166C253.802,196.556 247.569,199.847 239.6,200.028C233.593,200.219 227.405,198.337 221.037,194.392L221.037,230.922L210.735,227.247L210.735,146.163C212.426,144.089 214.601,142.309 217.238,140.798C223.37,137.225 230.82,135.388 239.589,135.298L239.735,135.445C247.749,135.343 253.926,138.634 258.265,145.307C262.311,151.427 264.34,159.272 264.34,168.863Z" style="fill:rgb(100,100,100);fill-rule:nonzero;"/>
            <path id="path48" d="M327.3,192.837C327.3,204.311 326.151,212.257 323.851,216.675C321.541,221.093 317.145,224.621 310.653,227.247C305.389,229.321 299.697,230.448 293.589,230.64L291.887,224.148C298.097,223.302 302.47,222.457 305.006,221.612C309.999,219.921 313.426,217.329 315.308,213.857C316.818,211.028 317.562,205.629 317.562,197.638L317.562,194.956C310.518,198.157 303.135,199.746 295.414,199.746C290.343,199.746 285.868,198.157 282.013,194.956C277.685,191.473 275.521,187.055 275.521,181.701L275.521,138.826L285.823,135.298L285.823,178.455C285.823,183.065 287.311,186.615 290.286,189.106C293.262,191.597 297.116,192.792 301.839,192.702C306.562,192.6 311.622,190.774 316.999,187.201L316.999,136.853L327.3,136.853L327.3,192.837Z" style="fill:rgb(100,100,100);fill-rule:nonzero;"/>
            <path id="path50" d="M367.515,199.464C366.287,199.566 365.16,199.611 364.123,199.611C358.296,199.611 353.753,198.224 350.507,195.44C347.273,192.656 345.65,188.813 345.65,183.91L345.65,143.334L338.594,143.334L338.594,136.853L345.65,136.853L345.65,119.643L355.94,115.979L355.94,136.853L367.515,136.853L367.515,143.334L355.94,143.334L355.94,183.628C355.94,187.494 356.977,190.233 359.051,191.834C360.832,193.152 363.661,193.908 367.515,194.099L367.515,199.464Z" style="fill:rgb(100,100,100);fill-rule:nonzero;"/>
            <path id="path52" d="M429.889,198.619L419.588,198.619L419.588,158.855C419.588,154.808 418.641,151.325 416.759,148.418C414.583,145.126 411.563,143.481 407.685,143.481C402.963,143.481 397.057,145.972 389.967,150.954L389.967,198.619L379.666,198.619L379.666,103.57L389.967,100.324L389.967,143.616C396.55,138.826 403.741,136.425 411.551,136.425C417.007,136.425 421.425,138.262 424.806,141.925C428.199,145.589 429.889,150.153 429.889,155.608L429.889,198.619Z" style="fill:rgb(100,100,100);fill-rule:nonzero;"/>
            <path id="path54" d="M484.644,166.541C484.644,160.072 483.416,154.729 480.97,150.503C478.062,145.352 473.542,142.635 467.433,142.354C456.14,143.007 450.504,151.1 450.504,166.609C450.504,173.721 451.676,179.661 454.043,184.429C457.064,190.504 461.595,193.502 467.636,193.4C478.975,193.31 484.644,184.361 484.644,166.541ZM495.927,166.609C495.927,175.817 493.571,183.482 488.871,189.602C483.697,196.455 476.552,199.892 467.433,199.892C458.394,199.892 451.349,196.455 446.266,189.602C441.656,183.482 439.357,175.817 439.357,166.609C439.357,157.953 441.848,150.672 446.83,144.743C452.093,138.454 459.014,135.298 467.569,135.298C476.123,135.298 483.089,138.454 488.454,144.743C493.436,150.672 495.927,157.953 495.927,166.609Z" style="fill:rgb(100,100,100);fill-rule:nonzero;"/>
            <path id="path56" d="M554.987,198.619L544.685,198.619L544.685,156.6C544.685,151.99 543.299,148.395 540.526,145.803C537.753,143.222 534.056,141.97 529.447,142.072C524.555,142.162 519.9,143.763 515.482,146.862L515.482,198.619L505.18,198.619L505.18,145.589C511.109,141.272 516.564,138.454 521.546,137.135C526.246,135.907 530.393,135.298 533.966,135.298C536.412,135.298 538.711,135.535 540.875,136.008C544.922,136.944 548.213,138.679 550.749,141.227C553.578,144.044 554.987,147.426 554.987,151.382L554.987,198.619Z" style="fill:rgb(100,100,100);fill-rule:nonzero;"/>
            <path id="path1948" d="M108.987,103.951C103.687,103.975 98.625,104.427 94.172,105.215C81.051,107.533 78.669,112.385 78.669,121.332L78.669,133.149L109.674,133.149L109.674,137.087L67.034,137.087C58.023,137.087 50.133,142.503 47.665,152.806C44.818,164.616 44.692,171.986 47.665,184.317C49.869,193.496 55.132,200.036 64.143,200.036L74.803,200.036L74.803,185.871C74.803,175.637 83.657,166.61 94.172,166.61L125.14,166.61C133.761,166.61 140.643,159.513 140.643,150.855L140.643,121.332C140.643,112.93 133.554,106.618 125.14,105.215C119.814,104.329 114.288,103.926 108.987,103.951ZM92.22,113.454C95.423,113.454 98.038,116.112 98.038,119.381C98.038,122.637 95.423,125.271 92.22,125.271C89.006,125.271 86.402,122.637 86.402,119.381C86.402,116.112 89.006,113.454 92.22,113.454Z" style="fill:url(#_Linear1);fill-rule:nonzero;"/>
            <path id="path1950" d="M144.509,137.087L144.509,150.855C144.509,161.529 135.46,170.513 125.14,170.513L94.172,170.513C85.689,170.513 78.669,177.773 78.669,186.268L78.669,215.791C78.669,224.194 85.976,229.136 94.172,231.547C103.986,234.433 113.397,234.954 125.14,231.547C132.946,229.287 140.643,224.739 140.643,215.791L140.643,203.975L109.674,203.975L109.674,200.036L156.145,200.036C165.156,200.036 168.513,193.751 171.647,184.317C174.884,174.605 174.746,165.265 171.647,152.806C169.42,143.836 165.167,137.087 156.145,137.087L144.509,137.087ZM127.092,211.853C130.306,211.853 132.909,214.486 132.909,217.743C132.909,221.011 130.306,223.669 127.092,223.669C123.889,223.669 121.274,221.011 121.274,217.743C121.274,214.486 123.889,211.853 127.092,211.853Z" style="fill:url(#_Linear2);fill-rule:nonzero;"/>
            <path id="text3004" d="M575.048,127.669L576.854,127.669L576.854,116.341L581.133,116.341L581.133,114.991L570.769,114.991L570.769,116.341L575.048,116.341L575.048,127.669M582.734,127.669L584.277,127.669L584.277,117.323L587.627,127.668L589.344,127.668L592.835,117.358L592.835,127.669L594.518,127.669L594.518,114.991L592.291,114.991L588.477,125.852L585.224,114.991L582.734,114.991L582.734,127.669" style="fill:rgb(100,100,100);fill-rule:nonzero;"/>
            <path id="path1894" d="M151.575,251.614L151.575,251.619C151.575,256.039 132.819,259.676 110.026,259.676C87.233,259.676 68.477,256.039 68.477,251.619L68.477,251.614C68.477,247.194 87.233,243.557 110.026,243.557C132.819,243.557 151.575,247.194 151.575,251.614Z" style="fill:url(#_Radial3);fill-rule:nonzero;"/>
        </g>
    </g>
    <defs>
        <linearGradient id="_Linear1" x1="0" y1="0" x2="1" y2="0" gradientUnits="userSpaceOnUse" gradientTransform="matrix(70.9145,61.6015,-61.6015,70.9145,45.4821,103.95)"><stop offset="0" style="stop-color:rgb(90,159,212);stop-opacity:1"/><stop offset="1" style="stop-color:rgb(48,105,152);stop-opacity:1"/></linearGradient>
        <linearGradient id="_Linear2" x1="0" y1="0" x2="1" y2="0" gradientUnits="userSpaceOnUse" gradientTransform="matrix(-25.3235,-36.1743,36.1743,-25.3235,126.346,216.749)"><stop offset="0" style="stop-color:rgb(255,212,59);stop-opacity:1"/><stop offset="1" style="stop-color:rgb(255,232,115);stop-opacity:1"/></linearGradient>
        <radialGradient id="_Radial3" cx="0" cy="0" r="1" gradientUnits="userSpaceOnUse" gradientTransform="matrix(5.87278e-07,-8.05666,35.4124,1.27308e-05,110.026,251.616)"><stop offset="0" style="stop-color:rgb(184,184,184);stop-opacity:0.22"/><stop offset="1" style="stop-color:rgb(127,127,127);stop-opacity:0"/></radialGradient>
    </defs>
</svg>
