<?xml version="1.0" encoding="UTF-8" standalone="no"?>
<!DOCTYPE svg PUBLIC "-//W3C//DTD SVG 1.1//EN" "http://www.w3.org/Graphics/SVG/1.1/DTD/svg11.dtd">
<svg width="224px" height="48px" version="1.1" xmlns="http://www.w3.org/2000/svg" xmlns:xlink="http://www.w3.org/1999/xlink" xml:space="preserve" xmlns:serif="http://www.serif.com/" style="fill-rule:evenodd;clip-rule:evenodd;stroke-linecap:round;stroke-linejoin:round;stroke-miterlimit:1.5;">
    <g id="Aktion">
        <path d="M208,20C208,17.792 206.208,16 204,16L148,16C145.792,16 144,17.792 144,20L144,28C144,30.208 145.792,32 148,32L204,32C206.208,32 208,30.208 208,28L208,20Z" style="fill:rgb(189,189,189);stroke:black;stroke-width:1px;"/>
        <text x="98.455px" y="21.158px" style="font-family:'ArialMT', 'Arial', sans-serif;font-size:10px;">Aktion</text>
        <path d="M80,20C80,17.792 78.208,16 76,16L20,16C17.792,16 16,17.792 16,20L16,28C16,30.208 17.792,32 20,32L76,32C78.208,32 80,30.208 80,28L80,20Z" style="fill:rgb(189,189,189);stroke:black;stroke-width:1px;"/>
        <path d="M138,21L144,24L138,27C139.5,25.5 139.5,22.5 138,21Z"/>
        <path d="M80,24L139.2,24" style="fill:none;stroke:black;stroke-width:1px;"/>
    </g>
</svg>
